<?xml version="1.0" encoding="utf-8"?>
<!-- Generator: Adobe Illustrator 29.2.1, SVG Export Plug-In . SVG Version: 9.03 Build 55982)  -->
<svg version="1.1" baseProfile="tiny" id="Layer_1" xmlns="http://www.w3.org/2000/svg" xmlns:xlink="http://www.w3.org/1999/xlink"
	 x="0px" y="0px" viewBox="0 0 2048 512" overflow="visible" xml:space="preserve">
<g>
	<g>
		<path fill="#95E1FD" d="M329.8,244.8c-6.2,11.3-21.6,53.2-28.2,59.7c-2.4,2.3-4.3,1.7-6.9,2.6l-1.3-3.8L90.8,346.8
			c-13.9-8.2-29.8-15.5-43.2-24.3s-7.6-8.3-8.2-8.4c0.8-8.6,0-8.6,7.1-14.5L166,229.7c9,9,24.3,20.2,35.2,27.1
			c-30.6,23.4,8.1,41.9,31.6,42.3c37.9,0.6,68.1-30.1,20.6-49.3c8.3-14.8,17.1-31.8,24.1-47.2c7.5,8.7,46,23.5,50.8,30.1
			c2.7,3.8,1,8,1.4,12.1L329.8,244.8L329.8,244.8z"/>
		<path fill="#4AE3A2" d="M451.4,315.2c0.7,7.9,1.7,21.5-4.5,27.1L269.3,446c-7.1,3.8-4.6-4.9-4.7-10.3s-0.5-8.7,0.8-12.8
			c29.3-53.9,51.6-112,80.6-166c2.8-5.1,3.8-10.6,8.7-9.3s84.4,47.6,89.6,52C451.8,306,450.6,305.9,451.4,315.2L451.4,315.2
			L451.4,315.2z M345.9,304.1c-0.6,31.1,63,32.4,63.3,1C409.5,272.7,346.5,274.4,345.9,304.1z"/>
		<path fill="#CBCFD8" d="M25.4,338.3l14.8,12.9c58.2,25.4,123.2,81.7,180.5,103.9c19.3,7.5,37.2,6.3,55.9-2.2l1,41.2
			c-20.5,9.5-36.1,11.9-58,3.2c-58.5-23.2-124.1-79.5-183.5-105.9C21.3,382.3,24.2,353.8,25.4,338.3z"/>
		<path fill="#BCC1CB" d="M277.6,494l-1-41.2c58.3-26.3,117.9-75.1,176.7-103.1l12.1-13.5c1.4,15,3.7,44.9-9.6,54.2
			c-59.4,30.1-118.5,75.8-178.3,103.5h0.1V494z"/>
		<path fill="#FAC567" d="M345.9,256.9c-29,54-51.3,112.1-80.6,166c-1.3,4.1-0.9,8.6-0.8,12.8c-8.4,6-3.9,17.4-16.6,17.1
			s-7.6-3.8-7.5-14c0.2-28.6,50.7-91.3,45.2-114.5c-0.4-1.7,1-2.6-2.2-1.8c-19.3,7.9-164.7,30.4-170.6,36.9
			c-1.5,1.6-1.4,15.4-1,18.1c-6.7,2.5-15-2.3-16.1-9s0.6-13.2,0-19l198.9-42.3c2.6-0.9,4.6-0.3,6.9-2.6c6.6-6.4,22-48.4,28.2-59.7
			s4.1-8,4.6-8.1c7.8-2,14.9,13.1,11.5,20.2h0.1V256.9z"/>
		<path fill="#E8ECF2" d="M95.8,368.4c1,6.8,9.4,11.5,16.1,9c0.3,2-0.5,4.1,2,5.5L228.7,449c7.4,3.3,8.2-6.6,11.8-10.3
			c0,10.2-3.3,13.8,7.5,14s8.2-11,16.6-17.1c0.1,5.4-2.3,14.1,4.7,10.3l177.6-103.7c6.2-5.6,5.2-19.2,4.5-27.1
			c11.1,3.2,13.1,11,14.1,21.1l-12.1,13.5c-58.8,28-118.5,76.7-176.7,103.1c-18.7,8.5-36.6,9.7-55.9,2.2
			c-57.3-22.1-122.3-78.4-180.5-103.9l-14.8-12.9c0.4-5.7-0.5-7.6,2.2-13.4s9.8-11,11.9-10.7c-0.8,7.9-1.4,21.7,4,27.7
			c1.7,1.9,41.5,25.2,44.3,26s5.2,0.6,8,0.6L95.8,368.4L95.8,368.4z"/>
		<path fill="#4ECCF2" d="M201.2,256.9c5.4,3.5,13.3,6.9,19.1,10c2.7,1.5,16.1,10.8,18,10s13.2-23.5,15.2-27.1
			c47.5,19.2,17.3,49.8-20.6,49.3c-23.6-0.4-62.2-18.9-31.6-42.3l0,0L201.2,256.9z"/>
		<path fill="#4ECCF2" d="M39.5,314.2c0.6,0,5.9,6.9,8.2,8.4c13.4,8.7,29.3,16.1,43.2,24.3l202.6-43.5l1.3,3.8L95.9,349.5
			c0.5,5.9-0.9,13.4,0,19c-2.7,0-5.3,0.3-8-0.6s-42.6-24.1-44.3-26C38.2,336,38.8,322.1,39.5,314.2L39.5,314.2L39.5,314.2z"/>
		<path fill="#FEFEFE" d="M409.2,305.1c-16.7,18-47.7,18.3-63.3-1C346.5,274.4,409.5,272.7,409.2,305.1z"/>
		<path fill="#E8ECF2" d="M345.9,304.1c15.6,19.3,46.6,19.1,63.3,1C408.9,336.5,345.3,335.2,345.9,304.1z"/>
		<path fill="#5091FD" d="M112.8,359.4c5.8-6.5,151.3-29,170.6-36.9c3.2-0.8,1.8,0,2.2,1.8c-9.5,10.6-46.1,101.8-51.3,104.5
			c-6.2,3.2-106.7-63.3-121.5-69.3l0,0L112.8,359.4z M181.1,371.4c-2.6,0.6-2.2,4.7-2,6.5c2,18.2,49.2,18.1,51.1-0.3
			s-1.7-4.6-1.8-5.2c-0.1-1-0.9-1.6-1-2c-0.5-1.8,0.6-4.7-0.5-7.1C221.2,350.2,180.3,347.2,181.1,371.4z"/>
		<path fill="#3B64DE" d="M240.4,438.7c-3.6,3.7-4.4,13.5-11.8,10.3l-114.8-66.1c-2.6-1.4-1.7-3.5-2-5.5s-0.5-16.4,1-18.1
			c14.8,6,115.3,72.5,121.5,69.3c5.2-2.7,41.8-93.9,51.3-104.5c5.5,23.2-45,85.9-45.2,114.5l0,0L240.4,438.7z"/>
		<path fill="#FEFEFE" d="M227.4,370.4c-7.6,10.5-24,12-35.4,7.8c-3.3-1.2-9.4-7.1-10.8-6.8c-0.8-24.1,40.1-21.2,45.8-8.1
			c1,2.3,0,5.3,0.5,7.1H227.4z"/>
		<path fill="#E8ECF2" d="M228.4,372.4c-3.3,20.7-46.5,20.9-47.2-1c1.3-0.3,7.5,5.6,10.8,6.8c11.5,4.2,27.8,2.7,35.4-7.8
			C227.5,370.8,228.3,371.5,228.4,372.4z"/>
		<path fill="#3B64DE" d="M228.4,372.4c0,0.6,2.2,1.3,1.8,5.2c-1.9,18.4-49.1,18.5-51.1,0.3c-0.2-1.8-0.5-6,2-6.5
			C181.8,393.3,225.1,393.1,228.4,372.4L228.4,372.4L228.4,372.4z"/>
		<path fill="#EF4343" d="M292.6,32.9c71.9,17.5,16.8,140.3-1.4,180.1c-9.7,21.2-21.8,44.8-33.2,65.1c-2.8,4.9-19,36.5-20.9,37.3
			c-2.6,1.1-21.1-11.7-24.8-13.8c-63.6-47.1-86.7-86.6-54.3-164.4C177.2,91.1,235.4,19,292.6,32.9z M246.9,86.9
			c-38,9.8-69.6,67.1-62.3,105.3c10.8,56.2,69.3,13.4,87-16.2C289.8,145.6,305.8,71.8,246.9,86.9L246.9,86.9L246.9,86.9z"/>
		<path fill="#FE6262" d="M292.6,32.9C235.4,19,177.2,91.2,158,137.2c-32.5,77.8-9.3,117.2,54.3,164.4c-8-4.4-18.9-9.1-26.3-13.9
			c-14.9-9.6-36-25-48.5-37.4c-39.4-39.3-43.5-71.1-26-123.6C134.8,56.7,218.5-36.8,292.6,32.9L292.6,32.9L292.6,32.9z"/>
		<path fill="#FE6262" d="M184.6,192.1c39.8-14.3,66.4-64.1,62.3-105.3c58.9-15.1,42.9,58.7,24.7,89.1
			C253.9,205.5,195.4,248.3,184.6,192.1L184.6,192.1L184.6,192.1z"/>
	</g>
	<g>
		<polygon fill="#ECECEC" points="312.8,194.5 380.5,231 333.4,261.1 264.2,225 310.7,194.6 		"/>
		<path fill="#82A4B8" d="M333.4,261.1c0.2,4.4,0.4,8.8,0.6,13.1c0.4,14.5,0.8,29.9,2,44.3l-69.5-35.7c-1.2-19.2-1.7-38.5-2.2-57.8
			L333.4,261.1L333.4,261.1L333.4,261.1z"/>
		<path fill="#FED514" d="M381.5,244.8c11.8,8,36.5,14.8,43.9,26.9c3.4,5.7,9.3,36.6,8.2,42.8c-0.3,2-2.9,5.7-3.6,8.1
			c-7.8,7.1-18.7,14.8-29,17.6c-1.4-0.2-4,0.2-5.5,0.2c-0.8-0.7-2.2-0.1-3.1-0.2s-0.5,0-0.7,0c-1.2-11.3-3.1-34.9-9.6-43.7
			c-5.1-6.9-32-20.3-40.8-24.3c-1.2-0.6-2.4-1.2-3.9-1c7.3-5.2,33.8-23.5,40.6-26c1.3-0.5,2.2-0.6,3.6-0.5L381.5,244.8L381.5,244.8z
			 M422.8,277.3c-3.2,1-13.9,9.2-17.5,11.5s-16.1,9-17.1,11.8s2.1,17,2.9,20.4c1.1,5.1,0.8,11.1,8,8.1c2.5-1,28.8-17.9,29.8-19.3
			c2.6-3.4,0.8-6.2,0.4-9.6c-0.5-4.3-2.3-18.6-3.8-21.8s-1.2-1.6-2.8-1.1H422.8z"/>
		<path fill="#C87F01" d="M337.3,271.3c1.4-0.1,2.6,0.5,3.9,1c8.9,4,35.8,17.4,40.8,24.3c6.5,8.7,8.4,32.4,9.6,43.7
			c-1.6-0.2-3.5-2.5-4.1,1.4c-0.4,3.1,0.3,13.1,3.1,15.2c-1.3,0.2-3.1,0.9-3.4,2.2s0.5,5,0.3,6.9c-6.3-2.8-13.6-6.9-19.9-10.2
			c-1.5-0.8-3-1.9-4.6-2.6c0.7-10.2-11.9-34.7-23-25.7c-5.3-2.1-3.8-4.4-4.2-9.2c-1.1-14.4-1.5-29.8-2-44.3c0.8-1.7,2.1-2,3.3-2.9
			L337.3,271.3L337.3,271.3z M344,302.1c7.8,8.6,28.3,17.1,37.6,25.4c3.1,1,3.4-1.3,3.4-3.7c0-10.9-2.4-21.8-12-27.9
			s-29.2-15.7-30.9-15.4c-2.9,0.5-1.7,11.7-1.4,14s1.2,5.3,3.2,7.5l0,0L344,302.1z"/>
		<path fill="#242A2F" d="M335.9,318.5c0.4,4.7-1,7.1,4.2,9.2c-2.9,2.4-3,8.9-2.6,12.2l-24.7-12.7c-2.3,1-4.3,2.5-6.5,3.7
			c4.7-9.5-1.1-24.7-9.3-30.6c-10-7.3-15.9,0.5-14.8,10.9c-15.9-5.7-14.9-14-15.8-28.4L335.9,318.5L335.9,318.5L335.9,318.5z"/>
		<path fill="#CDCDCD" d="M381.5,244.8c-1.4,0-2.3,0-3.6,0.5c-6.8,2.5-33.3,20.8-40.6,26c-1.3,0.9-2.5,1.2-3.3,2.9
			c-0.1-4.4-0.4-8.8-0.6-13.1l47.2-30.1l1,13.8L381.5,244.8L381.5,244.8z"/>
		<path fill="#2F383E" d="M363.1,353.3c-0.2,2.4-1.1,4.1-1.8,6.3c-0.5,0.3-1.4,1.4-2.3,1.7c-10.7,4.3-20.4-12.6-21.5-21.5
			s-0.3-9.9,2.6-12.2C351.2,318.6,363.8,343.1,363.1,353.3L363.1,353.3L363.1,353.3z M346.6,335.4c-6.7,1.8,0.4,19.7,7.5,17.5
			C360.5,350.8,353.8,333.5,346.6,335.4z"/>
		<path fill="#2F383E" d="M306.3,330.9c-1.8,1-2.7,2.5-5.2,2.7c-9,0.6-18-14.7-18.9-22.4c-1.1-10.4,4.7-18.2,14.8-10.9
			C305.2,306.2,311,321.4,306.3,330.9L306.3,330.9L306.3,330.9z M291.3,306.7c-6.6,2,1,20.2,8,17.3
			C305.5,321.4,298.3,304.6,291.3,306.7z"/>
		<path fill="#2F383E" d="M387.5,366.1c0.2-1.9-0.7-5.2-0.3-6.9c3.7,1.5,4.9,2.6,8.9,1.1c5.1-2,37.7-23,42.5-27.1s2.4-1.4,2-3.4
			c4,3.8,1.2,7.9-2.2,10.8c-4.9,4.1-37.1,25-42.3,26.9S391.1,367.7,387.5,366.1z"/>
		<path fill="#242A2F" d="M440.7,329.8c0.5,2-0.8,2.3-2,3.4c-4.8,4-37.4,25.1-42.5,27.1c-4.1,1.6-5.3,0.5-8.9-1.1
			c0.3-1.4,2.1-2,3.4-2.2c0.7,0.6,1.6,0.5,2.5,0.6c3.7,0.2,11.8-6.5,15.2-8.6c6.8-4.2,13.3-8.5,19.9-13c0.8-0.5,6.8-3.4,6.8-3.8
			l-0.2-5.5c1.9,0.5,4.7,1.9,6,3.2h-0.2L440.7,329.8z"/>
		<path fill="#CDCDCD" d="M428.1,335.9c-6.6,4.5-13.1,8.8-19.9,13c-2-3.3-2.7-8.1-7.3-8.7c10.3-2.7,21.2-10.4,29-17.6
			c-1.4,4.4-1.9,8.6-1.8,13.2l0,0L428.1,335.9z M427.4,327.3c-0.9-0.9-18.9,12.8-21.2,13.2c-0.3,2.9,1.7,6.2,5.1,5.3
			c0.8-0.2,13.3-8.1,14-8.8c1.4-1.5,2.8-9.1,2.2-9.8L427.4,327.3L427.4,327.3z"/>
		<path fill="#242A2F" d="M367.7,355.9c-2.1,1.4-4.2,2.6-6.4,3.7c0.7-2.2,1.6-3.9,1.8-6.3C364.7,353.9,366.2,355.1,367.7,355.9
			L367.7,355.9L367.7,355.9z"/>
		<path fill="#314E74" d="M429.3,300.2c-0.2,0.9-0.5,1.8-0.9,2.6c-0.9,1.6-28.3,19.6-30.9,20.5s-4.6,0.3-6.4-2.4
			c-0.8-3.4-3.7-18-2.9-20.4s14-9.7,17.1-11.8c4.2,2.2,14.2,11.4,18,12.4c2.3,0.6,3.5-0.4,3.6-2.8c0.2-5.6-2.5-15.6-4.1-21.1
			c1.6-0.5,2-0.6,2.8,1.1c1.5,3.2,3.2,17.5,3.8,21.8L429.3,300.2L429.3,300.2z"/>
		<path fill="#59708A" d="M405.3,288.8c3.6-2.4,14.3-10.5,17.5-11.5c1.5,5.6,4.2,15.5,4.1,21.1c0,2.3-1.2,3.4-3.6,2.8
			C419.5,300.2,409.4,291,405.3,288.8z"/>
		<path fill="#2F383E" d="M429.3,300.2c0.4,3.4,2.2,6.2-0.4,9.6s-27.3,18.3-29.8,19.3c-7.2,3-6.9-3.1-8-8.1c1.8,2.7,3.2,3.5,6.4,2.4
			s30-18.9,30.9-20.5S429.1,301.2,429.3,300.2L429.3,300.2L429.3,300.2z"/>
		<path fill="#FEFEFE" d="M392.3,340.3c0.8,0.6,2.2,0.2,3.1,0.2c1.6,0,4.1-0.4,5.5-0.2c4.6,0.6,5.3,5.4,7.3,8.7
			c-3.4,2.1-11.5,8.9-15.2,8.6c-0.3-5.8-0.8-11.5-1.5-17.3L392.3,340.3L392.3,340.3z"/>
		<path fill="#CDCDCD" d="M395.4,340.5c-1,0-2.3,0.4-3.1-0.2C393.3,340.3,394.6,339.8,395.4,340.5z"/>
		<path fill="#2F383E" d="M344,302.1c-2-2.2-2.8-4.6-3.2-7.5s-1.5-13.5,1.4-14s27.9,13.5,30.9,15.4c9.6,6.1,11.9,16.9,12,27.9
			s-0.3,4.8-3.4,3.7c-9.3-8.3-29.8-16.9-37.6-25.4l0,0L344,302.1z"/>
		<path fill="#CDCDCD" d="M391.6,340.3c0.6,5.7,1.2,11.5,1.5,17.3c-0.9,0-1.7,0-2.5-0.6c-2.7-2.1-3.5-12.1-3.1-15.2
			C388,337.8,390,340.2,391.6,340.3L391.6,340.3L391.6,340.3z"/>
		<path fill="#CDCDCD" d="M346.6,335.4c7.1-1.9,13.9,15.4,7.5,17.5C347.1,355.1,339.9,337.3,346.6,335.4z M348.2,339.5
			c-3.5,1.2,0.6,10.5,4.1,9.4S352.1,338.2,348.2,339.5z"/>
		<path fill="#CDCDCD" d="M291.3,306.7c7-2.2,14.1,14.7,8,17.3C292.3,326.9,284.7,308.8,291.3,306.7z M292.4,311.2
			c-2.1,2.2,1.8,10.5,5.1,8.8C301.2,318.1,295.6,307.9,292.4,311.2z"/>
		<path fill="#2F383E" d="M427.4,327.3c0.6,0.7-0.7,8.3-2.2,9.8s-13.2,8.6-14,8.8c-3.4,0.8-5.4-2.5-5.1-5.3
			c2.3-0.4,20.4-14.1,21.2-13.2L427.4,327.3L427.4,327.3z"/>
		<path fill="#59708A" d="M348.2,339.5c3.9-1.3,7.6,8.3,4.1,9.4S344.8,340.6,348.2,339.5z"/>
		<path fill="#59708A" d="M292.4,311.2c3.1-3.2,8.7,6.9,5.1,8.8C294.2,321.7,290.3,313.4,292.4,311.2z"/>
	</g>
</g>
<g>
	<path fill="#EF4343" stroke="#DA1F3D" stroke-width="4" stroke-miterlimit="10" d="M548.7,401.8c-29.7,0-51-21.3-51-51V160
		c0-29.7,21.3-51,51-51h189.1l-25.1,72H585.5v148.9h72.8v-45.2h-42.7l20.1-57.7h97.5v174.9L548.7,401.8L548.7,401.8z"/>
	<path fill="#EF4343" stroke="#DA1F3D" stroke-width="4" stroke-miterlimit="10" d="M962.5,109c29.7,0,51,21.3,51,51v59.4
		c0,10.5-2.9,18.8-8.8,24.7c-5.4,5.4-11.3,8.4-17.6,8.8c6.3,0.4,12.1,2.9,17.6,7.1c5.9,4.6,8.8,11.7,8.8,21.3v69.4
		c0,29.7-21.3,51-51,51H769.2V109H962.5z M925.7,231.1v-54.4h-68.6v54.4H925.7z M925.7,334.1v-54.4h-68.6v54.4H925.7z"/>
</g>
<g>
	<path fill="#999999" stroke="#999999" stroke-width="6" stroke-miterlimit="10" d="M1097.1,209.2h-59.8l16.5-47.4h152.7v47.4H1155
		v145.5h-57.9L1097.1,209.2L1097.1,209.2L1097.1,209.2z"/>
	<path fill="#999999" stroke="#999999" stroke-width="6" stroke-miterlimit="10" d="M1223,243.9c0-18.5,15.4-33.9,33.9-33.9h65.3
		l-16.5,41.9h-30.3v102.8H1223V243.9L1223,243.9L1223,243.9z"/>
	<path fill="#999999" stroke="#999999" stroke-width="6" stroke-miterlimit="10" d="M1327.7,302c0-18.5,15.4-33.9,33.9-33.9h44.9
		v-16.3h-78.8l16.5-41.9h80.7c18.5,0,33.9,15.4,33.9,33.9v110.8h-97.3c-18.5,0-33.9-15.4-33.9-33.9V302L1327.7,302L1327.7,302z
		 M1406.5,315.5v-18.2h-29.2v18.2H1406.5z"/>
	<path fill="#999999" stroke="#999999" stroke-width="6" stroke-miterlimit="10" d="M1600,210l-16.5,41.9h-51.3v60.9h69.2
		l-16.5,41.9h-71.1c-18.5,0-33.9-15.4-33.9-33.9v-76.9c0-18.5,15.4-33.9,33.9-33.9H1600L1600,210L1600,210z"/>
	<path fill="#999999" stroke="#999999" stroke-width="6" stroke-miterlimit="10" d="M1762.3,354.7h-61.4l-20.1-51.3h-12.7v51.3
		h-52.4V156.3h52.4v102.2h12.7l19.6-48.5h59.2l-27.3,55.4c-4.4,8.5-6.6,13-14.1,15.2c7.4,1.4,13.2,4.7,17.1,13.2L1762.3,354.7
		L1762.3,354.7L1762.3,354.7z"/>
	<path fill="#999999" stroke="#999999" stroke-width="6" stroke-miterlimit="10" d="M1775,243.9c0-18.5,15.4-33.9,33.9-33.9h63.4
		c18.5,0,33.9,15.4,33.9,33.9v18.7c0,18.5-15.4,33.9-33.9,33.9h-44.9v16.3h81.6l-16.5,41.9H1809c-18.5,0-33.9-15.4-33.9-33.9
		L1775,243.9L1775,243.9L1775,243.9z M1827.3,249.1v18.2h29.2v-18.2L1827.3,249.1L1827.3,249.1z"/>
	<path fill="#999999" stroke="#999999" stroke-width="6" stroke-miterlimit="10" d="M1925.5,243.9c0-18.5,15.4-33.9,33.9-33.9h65.3
		l-16.5,41.9h-30.3v102.8h-52.4V243.9L1925.5,243.9L1925.5,243.9z"/>
</g>
</svg>
