<?xml version="1.0" encoding="UTF-8"?>
<svg id="Layer_1" xmlns="http://www.w3.org/2000/svg" version="1.1" xmlns:xlink="http://www.w3.org/1999/xlink" viewBox="0 0 512 512">
  <!-- Generator: Adobe Illustrator 29.2.1, SVG Export Plug-In . SVG Version: 2.1.0 Build 116)  -->
  <g>
    <g>
      <path d="M359,244.5c-6.2,11.3-21.6,53.2-28.2,59.7-2.4,2.3-4.3,1.7-6.9,2.6l-1.3-3.8-202.6,43.5c-13.9-8.2-29.8-15.5-43.2-24.3-2.3-1.5-7.6-8.3-8.2-8.4.8-8.6,0-8.6,7.1-14.5l119.5-69.9c9,9,24.3,20.2,35.2,27.1-30.6,23.4,8.1,41.9,31.6,42.3,37.9.6,68.1-30.1,20.6-49.3,8.3-14.8,17.1-31.8,24.1-47.2,7.5,8.7,46,23.5,50.8,30.1,2.8,3.8,1.1,8,1.5,12.1Z" fill="#95e1fd"/>
      <path d="M480.6,314.8c.7,7.9,1.7,21.5-4.5,27.1l-177.7,103.7c-7.1,3.8-4.6-4.9-4.7-10.3-.1-4.2-.5-8.7.8-12.8,29.3-53.9,51.6-112,80.6-166,2.8-5.1,3.8-10.6,8.7-9.3,5,1.4,84.4,47.6,89.6,52,7.6,6.5,6.4,6.4,7.2,15.6ZM375.1,303.8c-.6,31.1,63,32.4,63.3,1,.3-32.4-62.7-30.7-63.3-1Z" fill="#4ae3a2"/>
      <path d="M54.6,337.9l14.8,12.9c58.2,25.4,123.2,81.7,180.5,103.9,19.3,7.5,37.2,6.3,55.9-2.2l1,41.2c-20.5,9.5-36.1,11.9-58,3.2-58.5-23.3-124.1-79.6-183.5-105.9-14.8-9.1-11.9-37.6-10.7-53.1Z" fill="#cbcfd8"/>
      <path d="M306.8,493.6l-1-41.2c58.3-26.3,117.9-75.1,176.7-103.1l12.1-13.5c1.4,15,3.7,44.9-9.6,54.2-59.3,30.2-118.4,76-178.2,103.6Z" fill="#bcc1cb"/>
      <path d="M375.1,256.5c-29,54-51.3,112.1-80.6,166-1.3,4.1-.9,8.6-.8,12.8-8.4,6-3.9,17.4-16.6,17.1-10.8-.3-7.6-3.8-7.5-14,.2-28.6,50.7-91.3,45.2-114.5-.4-1.7,1-2.6-2.2-1.8-19.3,7.9-164.8,30.4-170.6,36.9-1.5,1.6-1.4,15.4-1,18.1-6.7,2.5-15-2.3-16.1-9-.9-5.6.6-13.2,0-19l198.9-42.3c2.6-.9,4.6-.3,6.9-2.6,6.6-6.4,22-48.4,28.2-59.7.7-1.3,4.1-8,4.6-8.1,7.8-2,14.9,13.1,11.5,20.1Z" fill="#fac567"/>
      <path d="M124.9,368.1c1,6.8,9.4,11.5,16.1,9,.3,2-.5,4.1,2,5.5l114.8,66.1c7.4,3.3,8.2-6.6,11.8-10.3-.1,10.2-3.3,13.8,7.5,14,12.7.3,8.2-11,16.6-17.1.1,5.4-2.3,14.1,4.7,10.3l177.6-103.7c6.2-5.6,5.2-19.2,4.5-27.1,11.1,3.2,13.1,11,14.1,21.1l-12.1,13.5c-58.8,28-118.5,76.7-176.7,103.1-18.7,8.5-36.6,9.7-55.9,2.2-57.3-22.1-122.3-78.4-180.5-103.9l-14.8-12.9c.4-5.7-.5-7.6,2.2-13.4,1.3-2.8,9.8-11,11.9-10.7-.8,7.9-1.4,21.7,4,27.7,1.7,1.9,41.5,25.2,44.3,26,2.6.8,5.2.6,7.9.6Z" fill="#e8ecf2"/>
      <path d="M230.4,256.5c5.4,3.5,13.3,6.9,19.1,10,2.7,1.5,16.1,10.8,18,10,1.4-.6,13.2-23.5,15.2-27.1,47.5,19.2,17.3,49.8-20.6,49.3-23.6-.3-62.3-18.8-31.7-42.2Z" fill="#4eccf2"/>
      <path d="M68.7,313.8c.6.1,5.9,6.9,8.2,8.4,13.4,8.7,29.3,16.1,43.2,24.3l202.6-43.5,1.3,3.8-199,42.2c.5,5.9-.9,13.4,0,19-2.7.1-5.3.3-8-.6-2.8-.9-42.6-24.1-44.3-26-5.3-5.9-4.7-19.7-3.9-27.6Z" fill="#4eccf2"/>
      <path d="M438.4,304.8c-16.7,18-47.7,18.3-63.3-1,.6-29.7,63.6-31.4,63.3,1Z" fill="#fefefe"/>
      <path d="M375.1,303.8c15.6,19.3,46.6,19.1,63.3,1-.3,31.3-63.9,30-63.3-1Z" fill="#e8ecf2"/>
      <path d="M142,359c5.8-6.5,151.3-29,170.6-36.9,3.2-.8,1.8,0,2.2,1.8-9.5,10.6-46.1,101.8-51.3,104.5-6.2,3.1-106.7-63.4-121.5-69.4ZM210.3,371.1c-2.6.6-2.2,4.7-2,6.5,2,18.2,49.2,18.1,51.1-.3.4-3.9-1.7-4.6-1.8-5.2-.1-1-.9-1.6-1-2-.5-1.8.6-4.7-.5-7.1-5.7-13.1-46.6-16.1-45.8,8.1Z" fill="#5091fd"/>
      <path d="M269.6,438.4c-3.6,3.7-4.4,13.5-11.8,10.3l-114.8-66.1c-2.6-1.4-1.7-3.5-2-5.5-.4-2.7-.5-16.4,1-18.1,14.8,6,115.3,72.5,121.5,69.3,5.2-2.7,41.8-93.9,51.3-104.5,5.5,23.3-45,85.9-45.2,114.6Z" fill="#3b64de"/>
      <path d="M256.5,370.1c-7.6,10.5-24,12-35.4,7.8-3.3-1.2-9.4-7.1-10.8-6.8-.8-24.1,40.1-21.2,45.8-8.1,1,2.3,0,5.3.4,7.1Z" fill="#fefefe"/>
      <path d="M257.5,372.1c-3.3,20.7-46.5,20.9-47.2-1,1.3-.3,7.5,5.6,10.8,6.8,11.5,4.2,27.8,2.7,35.4-7.8.2.4.9,1,1,2Z" fill="#e8ecf2"/>
      <path d="M257.5,372.1c.1.6,2.2,1.3,1.8,5.2-1.9,18.4-49.1,18.5-51.1.3-.2-1.8-.5-6,2-6.5.9,21.9,44.1,21.7,47.3,1Z" fill="#3b64de"/>
      <path d="M321.8,32.5c71.9,17.5,16.8,140.3-1.4,180.1-9.7,21.2-21.8,44.8-33.2,65.1-2.8,4.9-19,36.5-20.9,37.3-2.6,1.1-21.1-11.7-24.8-13.8-63.6-47.1-86.7-86.6-54.3-164.4,19.2-46,77.4-118.2,134.6-104.3ZM276.1,86.5c-38,9.8-69.6,67.1-62.3,105.3,10.8,56.2,69.3,13.4,87-16.2,18.2-30.4,34.2-104.2-24.7-89.1Z" fill="#ef4343"/>
      <path d="M321.8,32.5c-57.2-13.9-115.4,58.3-134.6,104.3-32.5,77.8-9.3,117.2,54.3,164.4-8-4.4-18.9-9.1-26.3-13.9-14.9-9.6-36-25-48.5-37.4-39.4-39.3-43.5-71.1-26-123.6,23.3-69.9,107-163.4,181.1-93.8Z" fill="#fe6262"/>
      <path d="M213.7,191.8c39.8-14.3,66.4-64.1,62.3-105.3,58.9-15.1,42.9,58.7,24.7,89.1-17.7,29.6-76.2,72.3-87,16.2Z" fill="#fe6262"/>
    </g>
    <g>
      <polygon points="341.9 194.1 409.7 230.6 362.5 260.7 293.4 224.6 339.9 194.2 341.9 194.1" fill="#ececec"/>
      <path d="M362.5,260.7c.2,4.4.4,8.8.6,13.1.4,14.5.8,29.9,2,44.3l-69.5-35.7c-1.2-19.2-1.7-38.5-2.2-57.8l69.1,36.1Z" fill="#82a4b8"/>
      <path d="M410.7,244.4c11.8,8,36.5,14.8,43.9,26.9,3.4,5.7,9.3,36.6,8.2,42.8-.3,2-2.9,5.7-3.6,8.1-7.8,7.1-18.7,14.8-29,17.6-1.4-.2-4,.2-5.5.2-.8-.7-2.2-.1-3.1-.2-.2,0-.5.1-.7,0-1.2-11.3-3.1-34.9-9.6-43.7-5.1-6.9-32-20.3-40.8-24.3-1.2-.6-2.4-1.2-3.9-1,7.3-5.2,33.8-23.5,40.6-26,1.2-.3,2.1-.4,3.5-.4ZM451.9,276.9c-3.2,1-13.9,9.2-17.5,11.5-3.1,2-16.1,9-17.1,11.8-.8,2.4,2.1,17,2.9,20.4,1.1,5.1.8,11.1,8,8.1,2.5-1,28.8-17.9,29.8-19.3,2.6-3.4.8-6.2.4-9.6-.5-4.3-2.3-18.6-3.8-21.8-.7-1.7-1.1-1.6-2.7-1.1Z" fill="#fed514"/>
      <path d="M366.5,271c1.4-.1,2.6.5,3.9,1,8.9,4,35.8,17.4,40.8,24.3,6.5,8.7,8.4,32.4,9.6,43.7-1.6-.2-3.5-2.5-4.1,1.4-.4,3.1.3,13.1,3.1,15.2-1.3.2-3.1.9-3.4,2.2-.4,1.7.5,5,.3,6.9-6.3-2.8-13.6-6.9-19.9-10.2-1.5-.8-3-1.9-4.6-2.6.7-10.2-11.9-34.7-23-25.7-5.3-2.1-3.8-4.4-4.2-9.2-1.1-14.4-1.5-29.8-2-44.3.9-1.5,2.2-1.8,3.5-2.7ZM373.1,301.7c7.8,8.6,28.3,17.1,37.6,25.4,3.1,1,3.4-1.3,3.4-3.7-.1-10.9-2.4-21.8-12-27.9-3-1.9-29.2-15.7-30.9-15.4-2.9.5-1.7,11.7-1.4,14,.5,3,1.3,5.4,3.3,7.6Z" fill="#c87f01"/>
      <path d="M365.1,318.1c.4,4.7-1,7.1,4.2,9.2-2.9,2.4-3,8.9-2.6,12.2l-24.7-12.7c-2.3,1-4.3,2.5-6.5,3.7,4.7-9.5-1.1-24.7-9.3-30.6-10-7.3-15.9.5-14.8,10.9-15.9-5.7-14.9-14-15.8-28.4l69.5,35.7Z" fill="#242a2f"/>
      <path d="M410.7,244.4c-1.4,0-2.3.1-3.6.5-6.8,2.5-33.3,20.8-40.6,26-1.3.9-2.5,1.2-3.3,2.9-.1-4.4-.4-8.8-.6-13.1l47.2-30.1.9,13.8Z" fill="#cdcdcd"/>
      <path d="M392.3,353c-.2,2.4-1.1,4.1-1.8,6.3-.5.3-1.4,1.4-2.3,1.7-10.7,4.3-20.4-12.6-21.5-21.5-.4-3.4-.3-9.9,2.6-12.2,11.1-9,23.6,15.5,23,25.7ZM375.8,335.1c-6.7,1.8.4,19.7,7.5,17.5,6.4-2.1-.4-19.5-7.5-17.5Z" fill="#2f383e"/>
      <path d="M335.5,330.5c-1.8,1-2.7,2.5-5.2,2.7-9,.6-18-14.7-18.9-22.4-1.1-10.4,4.7-18.2,14.8-10.9,8.1,6,14,21.2,9.3,30.6ZM320.5,306.3c-6.6,2,1,20.2,8,17.3,6.1-2.6-1-19.4-8-17.3Z" fill="#2f383e"/>
      <path d="M416.7,365.7c.2-1.9-.7-5.2-.3-6.9,3.7,1.5,4.9,2.6,8.9,1.1,5.1-2,37.7-23,42.5-27.1,1.2-1,2.4-1.4,2-3.4,4,3.8,1.2,7.9-2.2,10.8-4.9,4.1-37.1,25-42.3,26.9-4.3,1.7-5,.2-8.6-1.4Z" fill="#2f383e"/>
      <path d="M469.9,329.5c.5,2-.8,2.3-2,3.4-4.8,4-37.4,25.1-42.5,27.1-4.1,1.6-5.3.5-8.9-1.1.3-1.4,2.1-2,3.4-2.2.7.6,1.6.5,2.5.6,3.7.2,11.8-6.5,15.2-8.6,6.8-4.2,13.3-8.5,19.9-13,.8-.5,6.8-3.4,6.8-3.8l-.2-5.5c1.6.3,4.4,1.8,5.8,3.1Z" fill="#242a2f"/>
      <path d="M457.3,335.5c-6.6,4.5-13.1,8.8-19.9,13-2-3.3-2.7-8.1-7.3-8.7,10.3-2.7,21.2-10.4,29-17.6-1.4,4.5-1.9,8.7-1.8,13.3ZM456.6,326.9c-.9-.9-18.9,12.8-21.2,13.2-.3,2.9,1.7,6.2,5.1,5.3.8-.2,13.3-8.1,14-8.8,1.3-1.4,2.7-9,2.1-9.7Z" fill="#cdcdcd"/>
      <path d="M396.9,355.5c-2.1,1.4-4.2,2.6-6.4,3.7.7-2.2,1.6-3.9,1.8-6.3,1.6.7,3,1.8,4.6,2.6Z" fill="#242a2f"/>
      <path d="M458.5,299.8c-.2.9-.5,1.8-.9,2.6-.9,1.6-28.3,19.6-30.9,20.5-3.2,1.1-4.6.3-6.4-2.4-.8-3.4-3.7-18-2.9-20.4.9-2.7,14-9.7,17.1-11.8,4.2,2.2,14.2,11.4,18,12.4,2.3.6,3.5-.4,3.6-2.8.2-5.6-2.5-15.6-4.1-21.1,1.6-.5,2-.6,2.8,1.1,1.4,3.3,3.2,17.6,3.7,21.9Z" fill="#314e74"/>
      <path d="M434.4,288.4c3.6-2.4,14.3-10.5,17.5-11.5,1.5,5.6,4.2,15.5,4.1,21.1-.1,2.3-1.2,3.4-3.6,2.8-3.8-1-13.8-10.2-18-12.4Z" fill="#59708a"/>
      <path d="M458.5,299.8c.4,3.4,2.2,6.2-.4,9.6-1.1,1.4-27.3,18.3-29.8,19.3-7.2,3-6.9-3.1-8-8.1,1.8,2.7,3.2,3.5,6.4,2.4,2.5-.9,30-18.9,30.9-20.5.4-.9.7-1.8.9-2.7Z" fill="#2f383e"/>
      <path d="M421.5,339.9c.8.6,2.2.2,3.1.2,1.6-.1,4.1-.4,5.5-.2,4.6.6,5.3,5.4,7.3,8.7-3.4,2.1-11.5,8.9-15.2,8.6-.3-5.8-.8-11.5-1.5-17.3.3,0,.5,0,.8,0Z" fill="#fefefe"/>
      <path d="M424.6,340.1c-1,0-2.3.4-3.1-.2.9.1,2.3-.5,3.1.2Z" fill="#cdcdcd"/>
      <path d="M373.1,301.7c-2-2.2-2.8-4.6-3.2-7.5-.3-2.4-1.5-13.5,1.4-14,1.7-.3,27.9,13.5,30.9,15.4,9.6,6.1,11.9,16.9,12,27.9,0,2.5-.3,4.8-3.4,3.7-9.3-8.4-29.8-16.9-37.7-25.5Z" fill="#2f383e"/>
      <path d="M420.8,339.9c.6,5.7,1.2,11.5,1.5,17.3-.9-.1-1.7,0-2.5-.6-2.7-2.1-3.5-12.1-3.1-15.2.6-4,2.5-1.7,4.1-1.5Z" fill="#cdcdcd"/>
      <path d="M375.8,335.1c7.1-1.9,13.9,15.4,7.5,17.5-7.1,2.2-14.3-15.7-7.5-17.5ZM377.4,339.1c-3.5,1.2.6,10.5,4.1,9.4,3.4-1-.3-10.6-4.1-9.4Z" fill="#cdcdcd"/>
      <path d="M320.5,306.3c7-2.2,14.1,14.7,8,17.3-7,2.9-14.6-15.2-8-17.3ZM321.5,310.8c-2.1,2.2,1.8,10.5,5.1,8.8,3.7-1.9-1.9-12.1-5.1-8.8Z" fill="#cdcdcd"/>
      <path d="M456.6,326.9c.6.7-.7,8.3-2.2,9.8s-13.2,8.6-14,8.8c-3.4.8-5.4-2.5-5.1-5.3,2.4-.5,20.4-14.2,21.3-13.3Z" fill="#2f383e"/>
      <path d="M377.4,339.1c3.9-1.3,7.6,8.3,4.1,9.4s-7.6-8.2-4.1-9.4Z" fill="#59708a"/>
      <path d="M321.5,310.8c3.1-3.2,8.7,6.9,5.1,8.8-3.3,1.7-7.2-6.6-5.1-8.8Z" fill="#59708a"/>
    </g>
  </g>
  <rect x="119" y="301.2" width="260.5" height="158.5" rx="14.4" ry="14.4" fill="#fff" opacity=".8"/>
  <g>
    <path d="M153,447.5c-13.9,0-23.9-10-23.9-23.9v-89.5c0-13.9,10-23.9,23.9-23.9h88.7l-11.8,33.7h-59.6v69.8h34.1v-21.2h-20l9.4-27.1h45.7v82h-86.5Z" fill="#ef4343" stroke="#da1f3d" stroke-miterlimit="10" stroke-width="4"/>
    <path d="M347,310.2c13.9,0,23.9,10,23.9,23.9v27.9c0,4.9-1.4,8.8-4.1,11.6s-5.3,3.9-8.2,4.1c2.9.2,5.7,1.4,8.2,3.3,2.7,2.2,4.1,5.5,4.1,10v32.6c0,13.9-10,23.9-23.9,23.9h-90.6v-137.3h90.6ZM329.8,367.5v-25.5h-32.2v25.5h32.2ZM329.8,415.7v-25.5h-32.2v25.5h32.2Z" fill="#ef4343" stroke="#da1f3d" stroke-miterlimit="10" stroke-width="4"/>
  </g>
</svg>